<svg version="1.1" id="レイヤー_1" xmlns="http://www.w3.org/2000/svg" x="0" y="0" viewBox="0 0 141.1 23.1" style="enable-background:new 0 0 141.1 23.1" xml:space="preserve"><style>.st0{fill:#34b3a9}</style><switch><g><path class="st0" d="M23.1 11.5 11.5 23.1 0 11.5 11.5 0l1.6 1.6-9.8 10 8.2 8.2 9.9-9.9 1.7 1.6zm-8.1-2L13.6 8l-4.4 4.4 1.4 1.4L15 9.5zM43.5 16.2c.7 0 1.3-.1 1.8-.1v2c-.5-.1-1.3-.1-1.8-.1H29c-.6 0-1.3 0-1.9.1v-2c.7.1 1.3.1 1.9.1h6.2V6.1h-5c-.4 0-1.3 0-1.8.1v-2c.6.1 1.4.1 1.8.1h12.1c.7 0 1.3-.1 1.9-.1v1.9c-.5-.1-1.3-.1-1.9-.1H37v10.1h6.5zM50.9 12.4l-1.7.6c-.3-1.1-1.5-4.2-2-5l1.6-.6c.6.9 1.7 3.8 2.1 5zM62 7.5c-.2.5-.2.8-.3 1.1-.6 2.4-1.5 4.8-3.1 6.8-2 2.6-4.7 4.3-7.2 5.2l-1.5-1.5c2.6-.7 5.3-2.4 7.2-4.7 1.6-1.9 2.7-4.7 3-7.5l1.9.6zM55.8 11l-1.6.6c-.2-1-1.3-3.8-1.7-4.8l1.5-.5c.4.9 1.5 3.8 1.8 4.7zM70.7 10.1l-1 1.5c-1.1-.8-3.5-2.3-4.8-3l1-1.5c1.3.8 3.8 2.4 4.8 3zm2.6 5.3c3.7-2.1 6.6-5 8.3-8.1l1.1 1.8c-1.9 2.9-5 5.8-8.5 7.9-2.2 1.3-5.2 2.3-7.3 2.7l-1-1.8c2.4-.4 5.1-1.3 7.4-2.5zM74 5.3l-1 1.5c-1.1-.8-3.5-2.4-4.7-3.1l1-1.5c1.2.7 3.7 2.4 4.7 3.1zm6.6.7-1.3.6c-.5-1.2-1.3-2.5-2-3.5l1.2-.5c.6.7 1.6 2.3 2.1 3.4zm3-1.1-1.3.6C81.7 4.3 81 3 80.2 2l1.2-.5c.7.8 1.6 2.3 2.2 3.4zM101.8 4.3c-.1.2-.2.8-.3 1-.4 2.6-.9 5.7-2.4 8.2-1.8 2.8-4.8 5.1-8.3 6.2l-1.5-1.5c3.2-.9 6.4-2.8 8.2-5.6 1.3-2 1.9-4.8 2.1-7.4H87.4v4.4c0 .3 0 .9.1 1.4h-2c.1-.5.1-1 .1-1.4V5c0-.5 0-1-.1-1.5.6 0 1.4.1 2.4.1h11.3c.5 0 1 0 1.4-.1l1.2.8zM104.4 9.4c.7 0 1.8.1 3.1.1h12.1c1.1 0 1.9-.1 2.4-.1v2.2c-.4 0-1.4-.1-2.4-.1h-12.1c-1.2 0-2.4 0-3.1.1V9.4zM141.1 5.2c-.2.3-.4.8-.5 1.2-.6 2.2-1.9 5.2-3.9 7.6-2 2.4-4.6 4.5-8.8 6l-1.6-1.4c4-1.2 6.8-3.2 8.8-5.5 1.7-2 3.1-4.9 3.5-6.9h-7.4c-1.3 1.8-3.2 3.8-5.6 5.4l-1.5-1.1c3.8-2.3 6-5.5 6.9-7.4.2-.4.6-1.2.7-1.7l2 .7c-.4.6-.8 1.3-1 1.7-.2.3-.3.6-.5.9h6c.6 0 1.1-.1 1.4-.2l1.5.7z"/></g></switch></svg>